<?xml version="1.0" standalone="no"?>
<!DOCTYPE svg PUBLIC "-//W3C//DTD SVG 20010904//EN"
 "http://www.w3.org/TR/2001/REC-SVG-20010904/DTD/svg10.dtd">
<svg version="1.0" xmlns="http://www.w3.org/2000/svg"
 width="400.000000pt" height="400.000000pt" viewBox="0 0 400.000000 400.000000"
 preserveAspectRatio="xMidYMid meet">
<metadata>
Created by potrace 1.11, written by Peter Selinger 2001-2013
</metadata>
<g transform="translate(0.000000,400.000000) scale(0.100000,-0.100000)"
fill="#000000" stroke="none">
<path d="M1443 3839 c-92 -17 -152 -68 -272 -229 -147 -199 -188 -229 -427
-315 -163 -59 -216 -88 -265 -144 -57 -64 -69 -117 -79 -336 -12 -269 -22
-303 -157 -498 -110 -160 -138 -224 -138 -317 0 -93 28 -157 138 -317 135
-195 145 -229 157 -498 5 -119 14 -208 23 -238 34 -107 108 -164 312 -238 251
-92 288 -119 436 -319 181 -244 261 -273 529 -194 291 86 309 86 600 0 268
-79 348 -50 529 194 144 195 197 235 405 307 158 54 239 97 285 149 59 68 71
118 81 339 12 269 22 303 157 498 110 160 138 224 138 317 0 93 -28 157 -138
317 -134 194 -145 228 -157 493 -10 225 -22 276 -79 341 -49 56 -102 85 -265
144 -239 86 -280 116 -427 315 -181 244 -261 273 -529 194 -290 -86 -307 -86
-595 -2 -134 39 -200 49 -262 37z m227 -135 c63 -19 160 -44 215 -56 89 -19
109 -20 180 -10 44 7 141 30 215 53 216 65 268 65 343 -2 26 -22 84 -90 130
-152 93 -124 178 -209 249 -251 25 -15 107 -49 181 -75 221 -81 273 -115 297
-199 6 -20 15 -125 20 -232 11 -264 24 -303 165 -514 68 -102 110 -176 121
-211 24 -83 5 -132 -121 -321 -141 -211 -154 -250 -165 -514 -5 -107 -14 -212
-20 -232 -24 -84 -79 -120 -298 -199 -73 -26 -154 -60 -180 -75 -72 -42 -157
-128 -247 -249 -45 -61 -104 -130 -130 -153 -77 -68 -127 -68 -342 -3 -249 75
-317 75 -566 0 -213 -65 -265 -64 -340 2 -26 22 -84 90 -130 152 -150 201
-211 248 -429 326 -222 81 -274 115 -298 199 -6 20 -15 125 -20 232 -12 273
-23 304 -173 527 -63 93 -102 162 -112 198 -25 83 -7 131 120 321 142 212 154
250 166 514 4 107 13 212 19 232 24 83 86 124 295 198 215 75 281 125 431 325
166 222 202 236 424 169z"/>
<path d="M1880 3256 c-230 -65 -379 -295 -341 -529 35 -212 204 -369 421 -392
81 -8 190 13 263 52 29 16 109 83 182 153 192 185 315 258 415 247 40 -5 51
-12 110 -76 69 -75 97 -91 159 -91 136 0 221 141 160 267 -40 83 -155 120
-244 77 -21 -9 -54 -40 -76 -70 -47 -65 -70 -78 -131 -77 -97 1 -224 81 -401
252 -67 65 -142 129 -167 144 -91 53 -245 72 -350 43z"/>
<path d="M880 2980 c-47 -8 -72 -23 -108 -64 -100 -114 -13 -296 141 -296 88
0 153 50 176 136 34 128 -77 247 -209 224z"/>
<path d="M1050 2399 c-208 -41 -352 -249 -319 -461 35 -223 250 -379 468 -339
95 18 145 46 236 132 101 97 177 150 268 188 144 59 299 75 445 45 160 -33
274 -96 417 -233 91 -86 141 -114 236 -132 128 -23 277 27 363 122 224 249 89
630 -241 681 -136 21 -258 -26 -368 -142 -180 -189 -452 -276 -703 -224 -158
32 -276 98 -412 228 -92 89 -129 111 -211 131 -71 16 -111 17 -179 4z"/>
<path d="M1920 1660 c-249 -43 -421 -284 -381 -533 44 -277 314 -452 586 -381
89 23 138 56 272 185 177 171 304 251 401 252 61 1 84 -12 131 -77 46 -62 94
-88 163 -88 161 2 236 188 124 310 -42 47 -128 65 -193 42 -15 -6 -57 -42 -93
-81 -59 -64 -70 -71 -110 -76 -100 -11 -223 62 -415 247 -142 137 -199 173
-302 195 -74 16 -113 17 -183 5z"/>
<path d="M831 1362 c-104 -52 -134 -193 -59 -278 41 -47 79 -65 138 -66 154
-1 239 167 148 295 -44 62 -155 86 -227 49z"/>
</g>
</svg>
