<!-- Generator: Adobe Illustrator 19.2.1, SVG Export Plug-In  -->
<svg version="1.1"
   xmlns="http://www.w3.org/2000/svg" xmlns:xlink="http://www.w3.org/1999/xlink" xmlns:a="http://ns.adobe.com/AdobeSVGViewerExtensions/3.0/"
   x="0px" y="0px" width="176.8px" height="121.7px" viewBox="0 0 176.8 121.7" enable-background="new 0 0 176.8 121.7"
   xml:space="preserve">
<defs>
</defs>
<g>
  <polygon id="XMLID_1_" points="96.6,33.3 80,50 113.3,50 113.3,16.7 96.6,16.7 96.6,0 63.3,0 63.3,33.3  "/>
</g>
<g>
  <path d="M0,121.4v-19.9h7.2c2.6,0,4.5,0.5,5.8,1.4c1.3,0.9,2,2.3,2,4.1c0,1-0.2,1.9-0.7,2.6c-0.5,0.7-1.2,1.3-2.1,1.6
    c1,0.3,1.8,0.8,2.4,1.5c0.6,0.7,0.8,1.7,0.8,2.7c0,2-0.6,3.4-1.9,4.4c-1.2,1-3.1,1.5-5.5,1.5H0z M4.8,109.8h2.5
    c1,0,1.8-0.2,2.2-0.6c0.4-0.4,0.7-0.9,0.7-1.7c0-0.8-0.2-1.4-0.7-1.8c-0.5-0.4-1.3-0.6-2.3-0.6H4.8V109.8z M4.8,112.9v4.8h3.1
    c0.9,0,1.5-0.2,2-0.6s0.7-1,0.7-1.7c0-1.7-0.8-2.5-2.5-2.5H4.8z"/>
  <path d="M25.7,117.7H34v3.7H20.9v-19.9h4.8V117.7z"/>
  <path d="M50.4,117.7h-6.6l-1.1,3.7h-5.1l7.3-19.9h4.5l7.4,19.9h-5.2L50.4,117.7z M45,114h4.3l-2.1-6.9L45,114z"/>
  <path d="M76.8,114.7c-0.1,1.4-0.4,2.6-1.1,3.7s-1.6,1.9-2.9,2.5c-1.2,0.6-2.6,0.9-4.2,0.9c-2.6,0-4.7-0.9-6.2-2.6s-2.3-4.1-2.3-7.2
    v-1c0-2,0.3-3.7,1-5.1c0.7-1.5,1.7-2.6,2.9-3.4c1.3-0.8,2.8-1.2,4.4-1.2c2.4,0,4.4,0.6,5.8,1.9c1.5,1.3,2.3,3,2.5,5.3H72
    c0-1.2-0.3-2.1-0.9-2.6s-1.4-0.8-2.6-0.8c-1.2,0-2.1,0.4-2.6,1.3c-0.6,0.9-0.8,2.3-0.9,4.3v1.4c0,2.1,0.3,3.6,0.8,4.6
    s1.5,1.4,2.8,1.4c1.1,0,1.9-0.3,2.5-0.8c0.6-0.5,0.9-1.3,0.9-2.5H76.8z"/>
  <path d="M88.6,114l-2,2.2v5.2h-4.8v-19.9h4.8v8.8l1.7-2.5l4.3-6.2h5.9l-6.7,8.8l6.7,11.1h-5.7L88.6,114z"/>
  <path d="M115.1,113.5h-7.7v7.9h-4.8v-19.9h13.3v3.7h-8.5v4.6h7.7V113.5z"/>
  <path d="M125.5,117.7h8.4v3.7h-13.2v-19.9h4.8V117.7z"/>
  <path d="M150.2,117.7h-6.6l-1.1,3.7h-5.1l7.3-19.9h4.5l7.4,19.9h-5.2L150.2,117.7z M144.8,114h4.3l-2.1-6.9L144.8,114z"/>
  <path d="M176.8,118.9c-0.7,0.8-1.8,1.5-3.2,2s-3,0.8-4.7,0.8c-2.6,0-4.7-0.8-6.2-2.4s-2.4-3.8-2.5-6.7l0-1.7c0-2,0.3-3.7,1-5.1
    c0.7-1.5,1.7-2.6,3-3.4c1.3-0.8,2.8-1.2,4.5-1.2c2.5,0,4.4,0.6,5.8,1.7c1.4,1.1,2.2,2.8,2.4,5.1h-4.6c-0.2-1.1-0.5-1.9-1.1-2.4
    s-1.3-0.7-2.3-0.7c-1.2,0-2.1,0.5-2.8,1.5s-1,2.5-1,4.4v1.2c0,2,0.3,3.5,1,4.5c0.7,1,1.7,1.5,3.2,1.5c1.2,0,2.2-0.3,2.8-0.8v-3.1
    h-3.3v-3.3h8.1V118.9z"/>
</g>
</svg>
