<svg version="1.1"
   xmlns="http://www.w3.org/2000/svg" xmlns:xlink="http://www.w3.org/1999/xlink" xmlns:a="http://ns.adobe.com/AdobeSVGViewerExtensions/3.0/"
   x="0px" y="0px" width="203.1px" height="44px" viewBox="0 0 203.1 44" enable-background="new 0 0 203.1 44" xml:space="preserve"
  >
<defs>
</defs>
<g>
  <path fill="#231F20" d="M66.7,15v2.8h-7v2.9H66v2.7h-6.3v2.9h7.2V29H56.6V15H66.7z"/>
  <path fill="#231F20" d="M75.9,23.9l3.6-8.9h3.4l-5.6,14h-2.6L69,15h3.4L75.9,23.9z"/>
  <path fill="#231F20" d="M97.1,27.1c-1.4,1.4-3.2,2.1-5.2,2.1c-2.1,0-3.8-0.7-5.2-2.1c-1.4-1.4-2.1-3.1-2.1-5.1
    c0-2.1,0.7-3.8,2.1-5.1c1.4-1.4,3.2-2.1,5.2-2.1c2.1,0,3.8,0.7,5.2,2.1c1.4,1.4,2.1,3.1,2.1,5.1C99.2,24,98.5,25.7,97.1,27.1z
     M96,21.9c0-1.2-0.4-2.3-1.2-3.2c-0.8-0.9-1.8-1.3-3-1.3c-1.2,0-2.1,0.4-3,1.3c-0.8,0.9-1.2,1.9-1.2,3.2s0.4,2.3,1.2,3.2
    c0.8,0.9,1.8,1.3,3,1.3c1.2,0,2.1-0.4,3-1.3C95.6,24.2,96,23.2,96,21.9z"/>
  <path fill="#231F20" d="M102.9,29V15h3.1v11.2h6V29H102.9z"/>
  <path fill="#231F20" d="M119.4,23.9l3.6-8.9h3.4l-5.6,14h-2.6l-5.6-14h3.4L119.4,23.9z"/>
  <path fill="#231F20" d="M139.4,15v14h-10.3v-2.8h7.2v-2.9H130v-2.7h6.3v-2.9h-7V15H139.4z"/>
  <path fill="#EA2127" d="M149.6,29V15h3.1v11.2h6V29H149.6z"/>
  <path fill="#EA2127" d="M172.1,29l-1.3-3h-5.9l-1.3,3h-3.3l6-14h3l6,14H172.1z M167.8,19.2l-1.8,4.1h3.5L167.8,19.2z"/>
  <path fill="#EA2127" d="M184.2,29h-6.1V15h5.4c0.9,0,1.8,0.1,2.4,0.3c0.7,0.2,1.2,0.5,1.6,0.9c0.6,0.7,0.9,1.5,0.9,2.4
    c0,1.1-0.4,1.9-1.1,2.4c-0.2,0.2-0.4,0.3-0.5,0.3c-0.1,0-0.3,0.1-0.5,0.2c0.9,0.2,1.6,0.6,2.1,1.2s0.8,1.3,0.8,2.2
    c0,1-0.3,1.8-1,2.6C187.5,28.6,186.1,29,184.2,29z M181.2,20.7h1.5c0.9,0,1.5-0.1,1.9-0.3c0.4-0.2,0.6-0.6,0.6-1.2s-0.2-1-0.6-1.2
    s-1-0.3-2-0.3h-1.5V20.7z M181.2,26.4h2.1c0.9,0,1.6-0.1,2-0.3c0.4-0.2,0.7-0.7,0.7-1.3c0-0.6-0.2-1.1-0.7-1.3
    c-0.5-0.2-1.2-0.3-2.3-0.3h-1.8V26.4z"/>
  <path fill="#EA2127" d="M196.2,17.8c-0.3,0.2-0.5,0.6-0.5,1s0.2,0.7,0.5,1c0.4,0.2,1.2,0.5,2.5,0.9c1.3,0.3,2.4,0.8,3.1,1.5
    c0.7,0.7,1.1,1.6,1.1,2.9c0,1.3-0.5,2.3-1.4,3.1c-0.9,0.8-2.2,1.2-3.7,1.2c-2.2,0-4.2-0.8-6-2.5l1.9-2.3c1.5,1.3,2.9,2,4.2,2
    c0.6,0,1-0.1,1.4-0.4c0.3-0.2,0.5-0.6,0.5-1c0-0.4-0.2-0.8-0.5-1c-0.3-0.2-1-0.5-2.1-0.8c-1.6-0.4-2.8-0.9-3.6-1.5
    c-0.8-0.6-1.1-1.6-1.1-2.9s0.5-2.4,1.4-3.1c1-0.7,2.1-1.1,3.6-1.1c0.9,0,1.9,0.2,2.8,0.5c0.9,0.3,1.7,0.8,2.4,1.4l-1.6,2.3
    c-1.2-0.9-2.5-1.4-3.8-1.4C197,17.5,196.5,17.6,196.2,17.8z"/>
  <g>
    <path fill="#D4D6D5" d="M44.2,22C44.2,22,44.2,22,44.2,22C44.2,22,44.2,22,44.2,22L44.2,22c0-0.7-0.3-1.5-1.1-2.6
      c-0.1-0.2-0.3-0.4-0.4-0.6c-0.6-0.8-1.2-1.7-1.6-2.8c-0.4-1.2-0.4-2.3-0.4-3.3c0-0.3,0-0.5,0-0.7c0-1.4-0.2-2.2-0.5-2.7
      c0,0,0,0,0,0c-0.4-0.5-1.1-0.9-2.4-1.4c-0.2-0.1-0.5-0.2-0.7-0.2c-0.9-0.3-2-0.7-3-1.4c-0.9-0.7-1.6-1.6-2.2-2.4
      c-0.2-0.2-0.3-0.4-0.5-0.6c-0.8-1.1-1.4-1.7-2-1.9c-0.2-0.1-0.4-0.1-0.6-0.1h0c-0.6,0-1.4,0.2-2.6,0.6l-0.2,0.1
      c-0.9,0.3-2,0.6-3.2,0.6c-1.2,0-2.3-0.3-3.2-0.6l-0.2-0.1c-0.9-0.3-1.9-0.6-2.6-0.6l0,0c0,0,0,0-0.1,0c0,0,0,0,0,0
      c-0.2,0-0.4,0-0.6,0.1c-0.6,0.2-1.2,0.7-2,1.9c-0.2,0.2-0.3,0.4-0.5,0.6c-0.6,0.8-1.2,1.7-2.2,2.4c-1,0.7-2,1.1-3,1.4
      C8.1,7.6,7.8,7.7,7.6,7.8c-1.3,0.5-2,0.9-2.4,1.4c-0.4,0.5-0.5,1.3-0.6,2.7c0,0.2,0,0.5,0,0.7c0,1,0,2.2-0.4,3.3
      c-0.4,1.1-1,2-1.6,2.8c-0.2,0.2-0.3,0.4-0.4,0.6c-0.8,1.1-1.1,1.9-1.1,2.5c0,0,0,0,0,0c0,0,0,0,0,0c0,0,0,0,0,0c0,0,0,0,0,0
      c0,0.6,0.3,1.4,1.1,2.5c0.1,0.2,0.3,0.4,0.4,0.6c0.6,0.8,1.2,1.7,1.6,2.8c0.4,1.2,0.4,2.3,0.4,3.3c0,0.3,0,0.5,0,0.7
      c0,1.4,0.2,2.2,0.6,2.7c0.4,0.5,1.1,0.9,2.4,1.4c0.2,0.1,0.5,0.2,0.7,0.2c0.9,0.3,2,0.7,3,1.4c0.9,0.7,1.6,1.6,2.2,2.4
      c0.2,0.2,0.3,0.4,0.5,0.6c0.8,1.1,1.4,1.7,2,1.9c0.2,0.1,0.4,0.1,0.6,0.1c0,0,0,0,0,0c0.7,0,1.6-0.3,2.6-0.6l0.2-0.1
      c0.9-0.3,2-0.6,3.2-0.6c1.2,0,2.3,0.3,3.2,0.6l0.2,0.1c0,0,0,0,0,0c0.9,0.3,1.9,0.6,2.6,0.6h0c0,0,0,0,0,0c0,0,0,0,0,0
      c0.3,0,0.5,0,0.7-0.1c0.6-0.2,1.2-0.7,2-1.9c0.2-0.2,0.3-0.4,0.5-0.6c0.6-0.8,1.3-1.7,2.2-2.4c1-0.7,2-1.1,3-1.4
      c0.2-0.1,0.5-0.2,0.7-0.2c1.3-0.5,2-0.9,2.4-1.4c0.4-0.5,0.5-1.3,0.6-2.7c0-0.2,0-0.4,0-0.6l0,0l0,0c0,0,0-0.1,0-0.1
      c0-1,0-2.2,0.4-3.3c0.4-1.1,1-2,1.6-2.8c0.2-0.2,0.3-0.4,0.5-0.6C43.8,23.5,44.2,22.7,44.2,22C44.2,22,44.2,22,44.2,22
      C44.2,22,44.2,22,44.2,22z M40.8,16c0.4,1.2,1,2.1,1.6,2.9c0.2,0.2,0.3,0.4,0.4,0.6c0.7,1,1.1,1.8,1.1,2.4h-5.2
      c0-3.4-1.1-6.7-3.1-9.4h4.7c0,0,0,0,0,0.1C40.5,13.6,40.5,14.8,40.8,16z M35.7,22.1h2.9c0,3.3-1,6.5-2.9,9.1V22.1z M35.7,21.9
      v-9.1c1.9,2.7,2.9,5.8,2.9,9.1H35.7z M40.4,11.9c0,0.2,0,0.3,0,0.5h-4.5l4.1-3C40.3,9.8,40.4,10.6,40.4,11.9z M37.6,8
      c1.2,0.4,1.9,0.8,2.2,1.2l-4.2,3.1v-5c0.4,0.2,0.8,0.3,1.2,0.4C37.2,7.8,37.4,7.9,37.6,8z M25.9,2l0.2-0.1
      c1.1-0.4,1.9-0.6,2.5-0.6h0c0.2,0,0.4,0,0.6,0.1c0.6,0.2,1.1,0.7,2,1.8c0.2,0.2,0.3,0.4,0.5,0.6c0.6,0.8,1.3,1.7,2.2,2.5
      C34.4,6.7,35,7,35.5,7.2c0,0,0,0,0,0v5c-0.4-0.6-0.9-1.1-1.4-1.6c-3-3-7.1-4.7-11.3-4.7V2.6C23.9,2.6,25,2.2,25.9,2z M15,16.4
      l7.4,5.5h-9.2C13.2,19.9,13.9,18,15,16.4z M14.9,16.2l-5-3.7h10.8C18.4,13,16.3,14.3,14.9,16.2z M22.4,22.1L15,27.6
      c-1.1-1.5-1.8-3.4-1.8-5.5H22.4z M20.6,31.5H10l4.9-3.6C16.3,29.6,18.3,31,20.6,31.5z M15.1,27.7l7.5-5.5v9.3h-0.7
      C19.1,31.2,16.7,29.8,15.1,27.7z M15.1,16.3c1.7-2.2,4.3-3.7,7.2-3.8h0.3v9.3L15.1,16.3z M22.3,12.3H9.9c0.4-0.6,0.9-1.1,1.4-1.6
      c3-3,7-4.7,11.2-4.7v6.3C22.5,12.3,22.4,12.3,22.3,12.3z M14.8,16.3c-1.1,1.6-1.8,3.5-1.8,5.6H9.8v-9.3L14.8,16.3z M13,22.1
      c0,2.1,0.7,4,1.8,5.6l-5,3.7v-9.3H13z M21.9,31.6c0.2,0,0.4,0,0.7,0V38c-4.2,0-8.2-1.7-11.2-4.7c-0.5-0.5-1-1.1-1.5-1.7H21.9z
       M30.4,27.8l4.9,3.6H24.7C27,31,29,29.6,30.4,27.8z M23.4,31.5h-0.7v-9.3l7.5,5.5C28.6,29.8,26.2,31.2,23.4,31.5z M30.3,27.6
      l-7.4-5.5h9.2C32.1,24.1,31.5,26,30.3,27.6z M22.9,21.9l7.4-5.5c1.1,1.5,1.8,3.4,1.8,5.5H22.9z M22.7,21.8v-9.3H23
      c2.9,0.1,5.5,1.6,7.2,3.8L22.7,21.8z M24.6,12.5h10.8l-5,3.7C29,14.3,26.9,13,24.6,12.5z M23,12.3c-0.1,0-0.2,0-0.3,0V6
      C27,6,31,7.7,34,10.7c0.5,0.5,1,1.1,1.4,1.6H23z M22.7,31.7c0.2,0,0.5,0,0.7,0h12c-0.4,0.6-0.9,1.1-1.5,1.7c-3,3-7,4.7-11.2,4.7
      V31.7z M30.5,27.7c1.1-1.6,1.8-3.5,1.8-5.6h3.2v9.3L30.5,27.7z M32.3,21.9c0-2.1-0.7-4-1.8-5.6l5-3.7v9.3H32.3z M11.4,6.3
      c1-0.7,1.6-1.7,2.2-2.5c0.2-0.2,0.3-0.4,0.5-0.6c0.8-1.1,1.4-1.6,1.9-1.8c0.2-0.1,0.4-0.1,0.6-0.1c0,0,0,0,0,0c0,0,0,0,0,0l0,0
      c0.7,0,1.6,0.3,2.5,0.6l0.2,0.1c0.9,0.3,2,0.6,3.2,0.6v3.2c-4.3,0-8.3,1.7-11.3,4.7c-0.5,0.5-1,1.1-1.4,1.6v-5c0,0,0,0,0,0
      C10.3,7,10.9,6.7,11.4,6.3z M7.7,8c0.2-0.1,0.5-0.2,0.7-0.2c0.4-0.1,0.8-0.3,1.2-0.4v5L5.4,9.2C5.8,8.8,6.5,8.4,7.7,8z M9.6,22.1
      v9.1c-1.9-2.7-2.9-5.8-2.9-9.1H9.6z M6.7,21.9c0-3.3,1-6.5,2.9-9.1v9.1H6.7z M5.3,9.3l4.1,3H4.9c0-0.2,0-0.3,0-0.5
      C4.9,10.6,5,9.8,5.3,9.3z M2.4,19.5c0.1-0.2,0.3-0.4,0.4-0.6c0.6-0.8,1.2-1.7,1.6-2.9c0.4-1.2,0.4-2.4,0.4-3.4c0,0,0,0,0-0.1h4.7
      c-2,2.7-3,6-3.1,9.4H1.3C1.3,21.3,1.7,20.6,2.4,19.5z M4.5,28c-0.4-1.2-1-2.1-1.6-2.9c-0.2-0.2-0.3-0.4-0.4-0.6
      c-0.7-1-1.1-1.8-1.1-2.4h5.2c0,3.4,1.1,6.7,3,9.4H4.9c0,0,0,0,0,0C4.8,30.4,4.8,29.2,4.5,28z M4.9,31.6h4.6l-4.1,3
      c-0.3-0.5-0.4-1.2-0.5-2.5C4.9,32,4.9,31.8,4.9,31.6z M7.7,36c-1.2-0.4-1.9-0.8-2.2-1.2l4.2-3.1v5c-0.4-0.2-0.8-0.3-1.2-0.4
      C8.1,36.2,7.9,36.1,7.7,36z M19.4,42.1l-0.2,0.1c-0.9,0.3-1.8,0.6-2.5,0.6c0,0,0,0,0,0c0,0,0,0,0,0h0c-0.2,0-0.4,0-0.6-0.1
      c-0.6-0.2-1.2-0.7-2-1.8c-0.2-0.2-0.3-0.4-0.5-0.6c-0.6-0.8-1.3-1.7-2.2-2.5c-0.5-0.4-1.1-0.7-1.6-0.9c0,0,0,0,0,0v-5
      c0.4,0.6,0.9,1.1,1.4,1.6c3,3,7.1,4.7,11.3,4.7v3.2C21.4,41.4,20.3,41.8,19.4,42.1z M33.9,37.7c-1,0.7-1.7,1.7-2.2,2.5
      c-0.2,0.2-0.3,0.4-0.4,0.6c-0.8,1.1-1.4,1.6-1.9,1.8c-0.2,0.1-0.4,0.1-0.6,0.1c0,0,0,0,0,0c-0.7,0-1.6-0.3-2.5-0.6c0,0,0,0,0,0
      l-0.2-0.1c-0.9-0.3-2-0.6-3.2-0.6v-3.2c4.3,0,8.3-1.7,11.3-4.7c0.5-0.5,1-1.1,1.4-1.6v5c0,0,0,0,0,0C35,37,34.4,37.3,33.9,37.7z
       M37.6,36c-0.2,0.1-0.5,0.2-0.7,0.2c-0.4,0.1-0.8,0.3-1.2,0.4v-5l4.2,3.1C39.5,35.2,38.8,35.6,37.6,36z M40,34.7l-4.1-3h4.6
      c0,0.2,0,0.3,0,0.5C40.4,33.4,40.3,34.2,40,34.7z M42.9,24.5c-0.1,0.2-0.3,0.4-0.4,0.6c-0.6,0.8-1.2,1.7-1.6,2.9l0,0
      c-0.4,1.2-0.4,2.4-0.4,3.4c0,0,0,0,0,0.1h-4.7c2-2.7,3-6,3-9.4H44C44,22.7,43.6,23.4,42.9,24.5z"/>
    <g>
      <linearGradient id="SVGID_1_" gradientUnits="userSpaceOnUse" x1="9.6879" y1="10.7474" x2="9.6879" y2="58.6246">
        <stop  offset="0" style="stop-color:#EA2127"/>
        <stop  offset="1" style="stop-color:#BA1C28"/>
      </linearGradient>
      <path fill="url(#SVGID_1_)" d="M9.7,14.6c1.2,0,2.2-1,2.2-2.2c0-1.2-1-2.2-2.2-2.2s-2.2,1-2.2,2.2C7.5,13.7,8.5,14.6,9.7,14.6z"
        />
      <linearGradient id="SVGID_2_" gradientUnits="userSpaceOnUse" x1="22.6526" y1="10.7474" x2="22.6526" y2="58.6246">
        <stop  offset="0" style="stop-color:#EA2127"/>
        <stop  offset="1" style="stop-color:#BA1C28"/>
      </linearGradient>
      <path fill="url(#SVGID_2_)" d="M36.1,18.2c-2.1-1.7-5.1-1.4-6.8,0.7c0,0-0.1,0.1-0.1,0.2c0,0-0.1,0.1-0.1,0.1
        c0,0-0.1,0.1-0.1,0.1c0,0-0.1,0.1-0.1,0.1c0,0-0.1,0.1-0.1,0.1c-0.4,0.3-0.9,0.7-1.5,1.1c-0.3,0.2-0.6,0.3-1,0.5
        c-0.4,0.1-0.7,0.3-1.1,0.4c-0.4,0.1-0.8,0.2-1.2,0.2c-0.4,0.1-0.8,0.1-1.2,0.1c-0.4,0-0.8,0-1.2-0.1c-0.4-0.1-0.8-0.1-1.2-0.2
        c-0.4-0.1-0.8-0.2-1.1-0.4c-0.4-0.1-0.7-0.3-1-0.5c-0.6-0.4-1.1-0.7-1.5-1.1c0,0-0.1-0.1-0.1-0.1c0,0-0.1-0.1-0.1-0.1
        c0,0-0.1-0.1-0.1-0.1c0,0-0.1-0.1-0.1-0.1c-0.1-0.1-0.1-0.2-0.1-0.2c-0.2-0.2-0.4-0.5-0.7-0.7c-2.1-1.7-5.1-1.4-6.8,0.7
        c-1.7,2.1-1.4,5.1,0.7,6.8c2.1,1.7,5.1,1.4,6.8-0.7c0,0,0.1-0.1,0.1-0.2c0,0,0.1-0.1,0.1-0.1c0,0,0.1-0.1,0.1-0.1
        c0,0,0.1-0.1,0.1-0.1c0,0,0.1-0.1,0.1-0.1c0.4-0.3,0.9-0.7,1.5-1.1c0.3-0.2,0.6-0.3,1-0.5c0.4-0.1,0.7-0.3,1.1-0.4
        c0.4-0.1,0.8-0.2,1.2-0.2c0.4-0.1,0.8-0.1,1.2-0.1c0.4,0,0.8,0,1.2,0.1c0.4,0.1,0.8,0.1,1.2,0.2c0.4,0.1,0.8,0.2,1.1,0.4
        c0.4,0.1,0.7,0.3,1,0.5c0.6,0.4,1.1,0.7,1.5,1.1c0,0,0.1,0.1,0.1,0.1c0,0,0.1,0.1,0.1,0.1c0,0,0.1,0.1,0.1,0.1
        c0,0,0.1,0.1,0.1,0.1c0.1,0.1,0.1,0.2,0.1,0.2c0.2,0.2,0.4,0.5,0.7,0.7c2.1,1.7,5.1,1.4,6.8-0.7S38.2,19.9,36.1,18.2z"/>
      <linearGradient id="SVGID_3_" gradientUnits="userSpaceOnUse" x1="27.4405" y1="10.7474" x2="27.4405" y2="58.6246">
        <stop  offset="0" style="stop-color:#EA2127"/>
        <stop  offset="1" style="stop-color:#BA1C28"/>
      </linearGradient>
      <path fill="url(#SVGID_3_)" d="M35.6,10.3c-0.4,0-0.8,0.1-1.2,0.3c-0.3,0.2-0.6,0.5-0.8,0.9c-0.4,0.6-0.9,0.8-1.4,0.8
        c-2.1,0-5.2-3.3-5.2-3.3c-1-1.3-2.6-2.1-4.4-2.1c-3.1,0-5.6,2.5-5.6,5.6s2.5,5.6,5.6,5.6c1.8,0,3.4-0.8,4.4-2.1
        c0,0,3-3.3,5.2-3.3c0.6,0,1.1,0.2,1.4,0.8c0.4,0.7,1.1,1.2,2,1.2c1.2,0,2.2-1,2.2-2.2C37.8,11.2,36.8,10.3,35.6,10.3z"/>
      <linearGradient id="SVGID_4_" gradientUnits="userSpaceOnUse" x1="9.6879" y1="10.7474" x2="9.6879" y2="58.6246">
        <stop  offset="0" style="stop-color:#EA2127"/>
        <stop  offset="1" style="stop-color:#BA1C28"/>
      </linearGradient>
      <path fill="url(#SVGID_4_)" d="M9.7,29.4c1.2,0,2.2,1,2.2,2.2c0,1.2-1,2.2-2.2,2.2s-2.2-1-2.2-2.2C7.5,30.3,8.5,29.4,9.7,29.4z"
        />
      <linearGradient id="SVGID_5_" gradientUnits="userSpaceOnUse" x1="27.4405" y1="10.7474" x2="27.4405" y2="58.6246">
        <stop  offset="0" style="stop-color:#EA2127"/>
        <stop  offset="1" style="stop-color:#BA1C28"/>
      </linearGradient>
      <path fill="url(#SVGID_5_)" d="M35.6,33.7c-0.4,0-0.8-0.1-1.2-0.3c-0.3-0.2-0.6-0.5-0.8-0.9c-0.4-0.6-0.9-0.8-1.4-0.8
        c-2.1,0-5.2,3.3-5.2,3.3c-1,1.3-2.6,2.1-4.4,2.1c-3.1,0-5.6-2.5-5.6-5.6s2.5-5.6,5.6-5.6c1.8,0,3.4,0.8,4.4,2.1
        c0,0,3,3.3,5.2,3.3c0.6,0,1.1-0.2,1.4-0.8c0.4-0.7,1.1-1.2,2-1.2c1.2,0,2.2,1,2.2,2.2C37.8,32.8,36.8,33.7,35.6,33.7z"/>
    </g>
    <linearGradient id="SVGID_6_" gradientUnits="userSpaceOnUse" x1="22.6525" y1="11.4057" x2="22.6525" y2="64.8164">
      <stop  offset="0" style="stop-color:#EA2127"/>
      <stop  offset="1" style="stop-color:#BA1C28"/>
    </linearGradient>
    <path fill="url(#SVGID_6_)" d="M16.7,1.2C16.7,1.2,16.7,1.2,16.7,1.2c0.7,0,1.5,0.3,2.5,0.6c1,0.3,2.2,0.7,3.4,0.7
      c1.3,0,2.4-0.4,3.4-0.7c1-0.3,1.9-0.6,2.5-0.6c0,0,0,0,0,0c0.2,0,0.4,0,0.6,0.1c0.6,0.2,1.3,0.8,2,1.8c0.7,1,1.5,2.2,2.7,3.1
      c1.2,0.9,2.6,1.2,3.7,1.6c1.2,0.4,2,0.8,2.3,1.4h0c0.4,0.5,0.5,1.4,0.5,2.6c0,1.2-0.1,2.6,0.4,4.1c0.5,1.4,1.4,2.5,2.1,3.5
      c0.7,1,1.1,1.8,1.1,2.5v0c0,0,0,0,0,0c0,0.7-0.4,1.5-1.1,2.5c-0.7,1-1.6,2.1-2.1,3.5c-0.5,1.5-0.4,2.9-0.4,4.1
      c0,1.3-0.2,2.1-0.5,2.7c-0.4,0.5-1.2,0.9-2.3,1.3c-1.1,0.4-2.5,0.8-3.7,1.6c-1.2,0.9-1.9,2.1-2.7,3.1c-0.7,1-1.4,1.7-2,1.8
      c-0.2,0.1-0.4,0.1-0.6,0.1c0,0,0,0,0,0c-0.6,0-1.5-0.3-2.5-0.6v0c-1-0.3-2.2-0.7-3.4-0.7c-1.3,0-2.4,0.4-3.4,0.7
      c-1,0.3-1.9,0.6-2.5,0.6c0,0,0,0,0,0c0,0,0,0,0,0c-0.2,0-0.4,0-0.6-0.1c-0.6-0.2-1.3-0.8-2-1.8c-0.7-1-1.5-2.2-2.7-3.1
      c-1.2-0.9-2.6-1.2-3.7-1.6c-1.2-0.4-2-0.8-2.3-1.3c-0.4-0.5-0.5-1.4-0.5-2.6c0-1.2,0.1-2.6-0.4-4.1c-0.5-1.4-1.4-2.5-2.1-3.5
      c-0.7-1-1.1-1.8-1.1-2.5c0,0,0,0,0,0c0,0,0,0,0,0c0-0.7,0.4-1.5,1.1-2.5c0.7-1,1.6-2.1,2.1-3.5c0.5-1.5,0.4-2.9,0.4-4.1
      c0-1.3,0.2-2.1,0.5-2.7c0.4-0.5,1.2-0.9,2.3-1.3c1.1-0.4,2.5-0.8,3.7-1.6c1.2-0.9,1.9-2.1,2.7-3.1c0.7-1,1.4-1.7,2-1.8
      C16.2,1.2,16.4,1.2,16.7,1.2C16.6,1.2,16.6,1.2,16.7,1.2C16.6,1.2,16.7,1.2,16.7,1.2 M16.7,0C16.6,0,16.6,0,16.7,0
      c-0.4,0-0.7,0.1-1,0.1c-1,0.3-1.9,1.3-2.6,2.3c-0.2,0.2-0.3,0.4-0.5,0.6c-0.6,0.8-1.1,1.6-2,2.2C9.8,5.9,8.9,6.2,7.9,6.5
      C7.7,6.6,7.5,6.6,7.2,6.7C6.5,7,6,7.2,5.6,7.4C5,7.7,4.6,8.1,4.3,8.5c-0.6,0.9-0.7,2.1-0.8,3.3c0,0.2,0,0.5,0,0.8c0,1,0,2-0.3,3
      c-0.3,1-0.9,1.8-1.4,2.5c-0.2,0.2-0.3,0.4-0.5,0.7C0.4,20.1,0,21.1,0,21.9c0,0,0,0,0,0c0,0,0,0,0,0c0,0,0,0,0,0c0,0,0,0,0,0
      c0,0.9,0.4,1.8,1.3,3.1c0.1,0.2,0.3,0.4,0.5,0.7c0.5,0.8,1.1,1.6,1.4,2.5c0.3,1,0.3,2,0.3,3c0,0.2,0,0.5,0,0.8
      c0,1.2,0.1,2.5,0.8,3.3c0.6,0.9,1.8,1.4,2.9,1.8c0.2,0.1,0.5,0.2,0.7,0.2c0.9,0.3,1.9,0.6,2.7,1.2c0.8,0.6,1.4,1.4,2,2.2
      c0.2,0.2,0.3,0.4,0.5,0.6c0.4,0.6,0.8,1,1.2,1.4c0.5,0.4,0.9,0.7,1.4,0.9c0.3,0.1,0.6,0.1,0.9,0.1c0,0,0,0,0.1,0c0,0,0,0,0,0
      c0.8,0,1.8-0.3,2.9-0.6c0.1,0,0.1,0,0.2-0.1c0.9-0.3,1.8-0.6,2.9-0.6c1,0,2,0.3,2.9,0.6c0.1,0,0.1,0,0.2,0.1c0,0,0,0,0,0
      c1.2,0.4,2.1,0.6,2.9,0.6c0,0,0,0,0,0c0,0,0,0,0,0c0.4,0,0.7,0,1-0.1c0.5-0.1,0.9-0.4,1.4-0.9c0.4-0.3,0.7-0.8,1.2-1.4
      c0.2-0.2,0.3-0.4,0.5-0.6c0.6-0.8,1.1-1.6,2-2.2c0.8-0.6,1.8-0.9,2.7-1.2c0.2-0.1,0.5-0.2,0.7-0.2c0.7-0.2,1.2-0.5,1.6-0.7
      c0.6-0.3,1-0.7,1.3-1.1c0.6-0.9,0.7-2.1,0.8-3.3c0-0.3,0-0.5,0-0.8c0-1,0-2,0.3-3c0.3-1,0.9-1.8,1.4-2.5c0.2-0.2,0.3-0.4,0.5-0.7
      c0.9-1.3,1.3-2.3,1.3-3.1c0,0,0,0,0-0.1l0,0v0c0,0,0,0,0,0c0-0.9-0.4-1.8-1.3-3.1c-0.1-0.2-0.3-0.4-0.5-0.7
      c-0.5-0.8-1.1-1.6-1.4-2.5c-0.3-1-0.3-2-0.3-3c0-0.2,0-0.5,0-0.8c0-1.6-0.2-2.6-0.7-3.3c0,0,0,0,0,0c-0.3-0.4-0.7-0.8-1.3-1.1
      c-0.4-0.2-1-0.5-1.7-0.7c-0.2-0.1-0.5-0.2-0.7-0.2c-0.9-0.3-1.9-0.6-2.7-1.2c-0.8-0.6-1.4-1.4-2-2.2c-0.2-0.2-0.3-0.4-0.5-0.6
      c-0.4-0.6-0.8-1-1.2-1.4c-0.5-0.4-0.9-0.7-1.4-0.9C29.3,0,29,0,28.7,0h0c0,0,0,0,0,0c-0.8,0-1.6,0.2-2.9,0.6c-0.1,0-0.1,0-0.2,0.1
      c-0.9,0.3-1.8,0.6-2.9,0.6c-1,0-2-0.3-2.9-0.6c-0.1,0-0.1,0-0.2-0.1C18.3,0.2,17.5,0,16.7,0C16.7,0,16.7,0,16.7,0L16.7,0z"/>
  </g>
</g>
</svg>
