<svg version="1.1"
   xmlns="http://www.w3.org/2000/svg" xmlns:xlink="http://www.w3.org/1999/xlink" xmlns:a="http://ns.adobe.com/AdobeSVGViewerExtensions/3.0/"
   x="0px" y="0px" width="264.1px" height="44px" viewBox="0 0 264.1 44" enable-background="new 0 0 264.1 44" xml:space="preserve"
  >
<defs>
</defs>
<g>
  <path d="M68.8,13.8v3.2h-7.9v3.3H68v3h-7.1v3.3H69v3.1H57.3V13.8H68.8z"/>
  <path d="M79.3,23.9l4-10.1h3.8l-6.4,15.9h-3l-6.4-15.9h3.8L79.3,23.9z"/>
  <path d="M103.2,27.5c-1.6,1.6-3.6,2.3-5.9,2.3c-2.3,0-4.3-0.8-5.9-2.3c-1.6-1.6-2.4-3.5-2.4-5.8c0-2.3,0.8-4.3,2.4-5.8
    c1.6-1.6,3.6-2.3,5.9-2.3c2.3,0,4.3,0.8,5.9,2.3c1.6,1.6,2.4,3.5,2.4,5.8C105.6,23.9,104.8,25.9,103.2,27.5z M102,21.6
    c0-1.4-0.5-2.6-1.4-3.6s-2-1.5-3.3-1.5S94.9,17,94,18c-0.9,1-1.4,2.2-1.4,3.6c0,1.4,0.5,2.6,1.4,3.6c0.9,1,2,1.5,3.3,1.5
    s2.4-0.5,3.3-1.5C101.6,24.2,102,23,102,21.6z"/>
  <path d="M109.9,29.6V13.8h3.5v12.7h6.8v3.2H109.9z"/>
  <path d="M128.5,23.9l4-10.1h3.8L130,29.6h-3l-6.4-15.9h3.8L128.5,23.9z"/>
  <path d="M151.2,13.8v15.9h-11.7v-3.1h8.1v-3.3h-7.1v-3h7.1v-3.3h-7.9v-3.2H151.2z"/>
  <path fill="#EA2127" d="M174.1,29.6l-1.5-3.4H166l-1.5,3.4h-3.8l6.8-15.9h3.4l6.9,15.9H174.1z M169.3,18.5l-2,4.6h4L169.3,18.5z"/>
  <path fill="#EA2127" d="M193.8,19.1c0,2.5-1,4.2-3,4.9l4,5.7h-4.4l-3.5-5.1h-2.4v5.1H181V13.8h6c2.5,0,4.2,0.4,5.3,1.2
    C193.3,15.9,193.8,17.2,193.8,19.1z M189.6,20.9c0.4-0.4,0.7-1,0.7-1.9s-0.2-1.4-0.7-1.8s-1.2-0.5-2.4-0.5h-2.7v4.7h2.6
    C188.3,21.5,189.1,21.3,189.6,20.9z"/>
  <path fill="#EA2127" d="M210.2,13.8v3.2h-7.9v3.3h7.1v3h-7.1v3.3h8.1v3.1h-11.7V13.8H210.2z"/>
  <path fill="#EA2127" d="M225.9,13.8h3.5v15.9h-3.5l-7.6-9.9v9.9h-3.5V13.8h3.3l7.8,10.2V13.8z"/>
  <path fill="#EA2127" d="M245.9,29.6l-1.5-3.4h-6.6l-1.5,3.4h-3.8l6.8-15.9h3.4l6.9,15.9H245.9z M241.1,18.5l-2,4.6h4L241.1,18.5z"
    />
  <path fill="#EA2127" d="M256.3,17c-0.3,0.3-0.5,0.7-0.5,1.1s0.2,0.8,0.6,1.1c0.4,0.3,1.4,0.6,2.9,1c1.5,0.4,2.7,0.9,3.5,1.7
    c0.8,0.7,1.2,1.8,1.2,3.2c0,1.4-0.5,2.6-1.6,3.5c-1.1,0.9-2.5,1.3-4.2,1.3c-2.5,0-4.8-0.9-6.8-2.8l2.1-2.6c1.7,1.5,3.3,2.2,4.7,2.2
    c0.6,0,1.2-0.1,1.5-0.4c0.4-0.3,0.6-0.7,0.6-1.1c0-0.5-0.2-0.9-0.6-1.1c-0.4-0.3-1.2-0.6-2.3-0.9c-1.8-0.4-3.2-1-4-1.7
    s-1.3-1.8-1.3-3.3s0.5-2.7,1.6-3.5c1.1-0.8,2.4-1.2,4-1.2c1.1,0,2.1,0.2,3.2,0.5c1.1,0.4,2,0.9,2.8,1.5l-1.8,2.6
    c-1.4-1-2.8-1.6-4.3-1.6C257.1,16.5,256.7,16.7,256.3,17z"/>
  <path d="M45.4,22C45.4,22,45.4,22,45.4,22c0,0.8-0.4,1.6-1.2,2.7c-0.7,1.1-1.7,2.2-2.2,3.7c-0.5,1.6-0.4,3.1-0.4,4.4
    c0,1.3-0.2,2.3-0.6,2.8c-0.4,0.6-1.2,1-2.5,1.4c-1.2,0.4-2.6,0.8-3.9,1.7c-1.3,1-2.1,2.2-2.8,3.3c-0.8,1.1-1.5,1.8-2.1,1.9
    C29.5,43.9,29.3,44,29,44c0,0,0,0,0,0c-0.7,0-1.6-0.3-2.7-0.6c-1.1-0.3-2.3-0.7-3.6-0.7c-1.4,0-2.6,0.4-3.6,0.7
    c-1.1,0.3-2,0.6-2.7,0.6c0,0,0,0,0,0c-0.3,0-0.5,0-0.6-0.1c-0.7-0.2-1.3-0.9-2.1-1.9c-0.8-1-1.6-2.3-2.8-3.3
    c-1.3-0.9-2.7-1.3-3.9-1.7c-1.2-0.4-2.1-0.9-2.5-1.4C3.9,35,3.8,34,3.8,32.7c0-1.3,0.1-2.8-0.4-4.4c-0.5-1.5-1.4-2.6-2.2-3.7
    C0.4,23.6,0,22.8,0,22c0,0,0,0,0,0c0,0,0,0,0,0c0-0.7,0.4-1.6,1.2-2.6c0.7-1.1,1.7-2.2,2.2-3.7c0.5-1.6,0.4-3.1,0.4-4.4
    c0-1.3,0.2-2.3,0.6-2.8c0.4-0.6,1.2-1,2.5-1.4C8,6.6,9.4,6.2,10.7,5.3c1.3-1,2-2.2,2.8-3.3C14.4,1,15,0.3,15.7,0.1
    C15.9,0,16.1,0,16.3,0c0,0,0,0,0.1,0C17.1,0,18,0.3,19,0.6c1.1,0.3,2.3,0.7,3.6,0.8c1.4,0,2.6-0.4,3.6-0.7C27.4,0.3,28.3,0,29,0
    c0,0,0,0,0,0c0.3,0,0.5,0,0.6,0.1C30.3,0.3,31,1,31.8,2c0.8,1,1.6,2.3,2.8,3.3c1.3,0.9,2.7,1.3,3.9,1.7c1.2,0.4,2.1,0.9,2.5,1.4
    c0.4,0.6,0.5,1.5,0.6,2.8c0,1.3-0.1,2.8,0.4,4.4c0.5,1.5,1.5,2.6,2.2,3.7C44.9,20.4,45.4,21.2,45.4,22L45.4,22z M38.7,11.9
    c0-1.3-1-2.3-2.3-2.3c-0.5,0-0.9,0.1-1.2,0.4c-0.4,0.2-0.7,0.5-0.8,0.9c-0.4,0.6-0.9,0.9-1.5,0.9c-2.3,0-5.5-3.5-5.5-3.5
    C26.3,6.8,24.6,6,22.7,6c-3.3,0-5.9,2.7-5.9,5.9s2.6,5.9,5.9,5.9c1.9,0,3.6-0.9,4.7-2.3c0,0,3.2-3.5,5.5-3.5c0.6,0,1.1,0.3,1.5,0.9
    c0.4,0.8,1.2,1.3,2.1,1.3C37.7,14.2,38.7,13.1,38.7,11.9z M38.7,32.1c0-1.3-1-2.3-2.3-2.3c-0.9,0-1.7,0.5-2.1,1.3
    c-0.4,0.6-0.9,0.9-1.5,0.9c-2.3,0-5.5-3.5-5.5-3.5c-1.1-1.4-2.8-2.3-4.7-2.3c-3.3,0-5.9,2.6-5.9,5.9c0,3.3,2.6,5.9,5.9,5.9
    c1.9,0,3.6-0.9,4.7-2.3c0,0,3.2-3.5,5.5-3.5c0.6,0,1.1,0.3,1.5,0.9c0.2,0.4,0.5,0.7,0.8,0.9c0.4,0.2,0.8,0.4,1.2,0.4
    C37.7,34.4,38.7,33.4,38.7,32.1z M37.6,25.2c1.8-2.2,1.5-5.4-0.7-7.2c-2.2-1.8-5.4-1.5-7.2,0.7c0,0-0.1,0.1-0.2,0.2
    c0,0-0.1,0.1-0.1,0.1c0,0-0.1,0.1-0.1,0.1c0,0-0.1,0.1-0.1,0.1c0,0-0.1,0.1-0.1,0.1c-0.4,0.3-0.9,0.8-1.6,1.1
    c-0.3,0.2-0.7,0.4-1.1,0.5c-0.4,0.2-0.8,0.3-1.2,0.4c-0.4,0.1-0.8,0.2-1.3,0.2c-0.4,0.1-0.9,0.1-1.3,0.1s-0.9,0-1.3-0.1
    c-0.4-0.1-0.9-0.1-1.3-0.2c-0.4-0.1-0.8-0.2-1.2-0.4c-0.4-0.2-0.7-0.3-1.1-0.5c-0.7-0.4-1.2-0.8-1.6-1.1c-0.1,0-0.1-0.1-0.1-0.1
    c0,0-0.1-0.1-0.1-0.1c0,0-0.1-0.1-0.1-0.1c0,0-0.1-0.1-0.1-0.1c-0.1-0.1-0.2-0.2-0.2-0.2c-0.2-0.2-0.5-0.5-0.7-0.7
    c-2.2-1.8-5.4-1.5-7.2,0.7S6.3,24.2,8.5,26c2.2,1.8,5.4,1.5,7.2-0.7c0,0,0.1-0.1,0.2-0.2c0,0,0.1-0.1,0.1-0.1c0,0,0.1-0.1,0.1-0.1
    c0,0,0.1-0.1,0.1-0.1c0,0,0.1-0.1,0.1-0.1c0.4-0.3,0.9-0.8,1.6-1.1c0.3-0.2,0.7-0.4,1.1-0.5c0.4-0.2,0.8-0.3,1.2-0.4
    c0.4-0.1,0.8-0.2,1.3-0.3c0.4-0.1,0.9-0.1,1.3-0.1c0.4,0,0.9,0,1.3,0.1c0.4,0.1,0.9,0.1,1.3,0.3c0.4,0.1,0.8,0.2,1.2,0.4
    c0.4,0.2,0.7,0.3,1.1,0.5c0.7,0.4,1.2,0.8,1.6,1.1c0,0,0.1,0.1,0.1,0.1c0,0,0.1,0.1,0.1,0.1c0,0,0.1,0.1,0.1,0.1
    c0,0,0.1,0.1,0.1,0.1c0.1,0.1,0.2,0.2,0.2,0.2c0.2,0.2,0.5,0.5,0.7,0.7C32.6,27.8,35.8,27.4,37.6,25.2z M11.3,11.9
    c0-1.3-1-2.3-2.3-2.3c-1.3,0-2.3,1-2.3,2.3c0,1.3,1,2.3,2.3,2.3C10.3,14.2,11.3,13.2,11.3,11.9z M11.3,32.1c0-1.3-1-2.3-2.3-2.3
    c-1.3,0-2.3,1-2.3,2.3c0,1.3,1,2.3,2.3,2.3C10.3,34.4,11.3,33.4,11.3,32.1z"/>
</g>
</svg>
