<!-- Generator: Adobe Illustrator 19.2.1, SVG Export Plug-In  -->
<svg version="1.1"
   xmlns="http://www.w3.org/2000/svg" xmlns:xlink="http://www.w3.org/1999/xlink" xmlns:a="http://ns.adobe.com/AdobeSVGViewerExtensions/3.0/"
   x="0px" y="0px" width="177.3px" height="120.4px" viewBox="0 0 177.3 120.4" enable-background="new 0 0 177.3 120.4"
   xml:space="preserve">
<defs>
</defs>
<g>
  <path fill="#FFFFFF" d="M72.1,8.9c-0.6,2.5-2,4.6-3.9,6.1l35.9,22.5c1.5-1.9,2.9-3.9,4.1-6L72.1,8.9z"/>
  <path fill="#FFFFFF" d="M110.8,26.6c3.2-7,4.7-14.3,3.8-20.2c0,0-9.4-6.1-26.7-6.1c-6.5,0-11.8,0.8-16,1.9L110.8,26.6z"/>
  <path fill="#FFFFFF" d="M61.9,17.7c3.2,13.5,13.9,28.4,26,31.2c4.4-1,8.6-3.6,12.3-7.2L61.9,17.7z"/>
  <circle fill="#FFFFFF" cx="61.3" cy="6.4" r="6.4"/>
</g>
<g>
  <path fill="#FFFFFF" d="M7.4,113.1H4.8v7H0v-19.9h7.8c2.4,0,4.2,0.5,5.5,1.6c1.3,1,2,2.5,2,4.4c0,1.4-0.3,2.5-0.8,3.4
    c-0.6,0.9-1.4,1.6-2.6,2.2l4.2,8v0.2h-5.1L7.4,113.1z M4.8,109.4h3c0.9,0,1.6-0.2,2.1-0.7c0.5-0.5,0.7-1.1,0.7-2
    c0-0.9-0.2-1.5-0.7-2c-0.5-0.5-1.1-0.7-2.1-0.7h-3V109.4z"/>
  <path fill="#FFFFFF" d="M37.9,110.6c0,1.9-0.4,3.7-1.1,5.2c-0.7,1.5-1.7,2.6-3.1,3.5s-2.8,1.2-4.5,1.2s-3.2-0.4-4.5-1.2
    s-2.3-1.9-3.1-3.3c-0.7-1.4-1.1-3.1-1.2-5v-1.1c0-2,0.4-3.7,1.1-5.2c0.7-1.5,1.7-2.6,3.1-3.5c1.3-0.8,2.9-1.2,4.6-1.2
    c1.7,0,3.2,0.4,4.5,1.2c1.3,0.8,2.3,1.9,3.1,3.4c0.7,1.5,1.1,3.2,1.1,5.1V110.6z M33,109.8c0-2-0.3-3.5-1-4.5
    c-0.7-1-1.6-1.5-2.8-1.5c-2.4,0-3.7,1.8-3.8,5.4l0,1.5c0,2,0.3,3.5,1,4.5c0.6,1,1.6,1.6,2.9,1.6c1.2,0,2.1-0.5,2.8-1.5s1-2.5,1-4.4
    V109.8z"/>
  <path fill="#FFFFFF" d="M59.3,113.4c-0.1,1.4-0.4,2.6-1.1,3.7s-1.6,1.9-2.9,2.5c-1.2,0.6-2.6,0.9-4.2,0.9c-2.6,0-4.7-0.9-6.2-2.6
    s-2.3-4.1-2.3-7.2v-1c0-2,0.3-3.7,1-5.1c0.7-1.5,1.7-2.6,2.9-3.4c1.3-0.8,2.8-1.2,4.4-1.2c2.4,0,4.4,0.6,5.8,1.9
    c1.5,1.3,2.3,3,2.5,5.3h-4.8c0-1.2-0.3-2.1-0.9-2.6s-1.4-0.8-2.6-0.8c-1.2,0-2.1,0.4-2.6,1.3c-0.6,0.9-0.8,2.3-0.9,4.3v1.4
    c0,2.1,0.3,3.6,0.8,4.6s1.5,1.4,2.8,1.4c1.1,0,1.9-0.3,2.5-0.8c0.6-0.5,0.9-1.3,0.9-2.5H59.3z"/>
  <path fill="#FFFFFF" d="M71.1,112.7l-2,2.2v5.2h-4.8v-19.9h4.8v8.8l1.7-2.5l4.3-6.2h5.9l-6.7,8.8l6.7,11.1h-5.7L71.1,112.7z"/>
  <path fill="#FFFFFF" d="M97.4,111.7h-7.5v4.8h8.9v3.7H85.1v-19.9h13.7v3.7h-8.9v4.2h7.5V111.7z"/>
  <path fill="#FFFFFF" d="M119.5,103.9h-6v16.2h-4.8v-16.2h-5.9v-3.7h16.6V103.9z"/>
  <path fill="#FFFFFF" d="M136.6,111.7h-7.5v4.8h8.9v3.7h-13.7v-19.9H138v3.7h-8.9v4.2h7.5V111.7z"/>
  <path fill="#FFFFFF" d="M155.1,111.7h-7.5v4.8h8.9v3.7h-13.7v-19.9h13.7v3.7h-8.9v4.2h7.5V111.7z"/>
  <path fill="#FFFFFF" d="M168.6,113.1H166v7h-4.8v-19.9h7.8c2.4,0,4.2,0.5,5.5,1.6c1.3,1,2,2.5,2,4.4c0,1.4-0.3,2.5-0.8,3.4
    c-0.6,0.9-1.4,1.6-2.6,2.2l4.2,8v0.2h-5.1L168.6,113.1z M166,109.4h3c0.9,0,1.6-0.2,2.1-0.7c0.5-0.5,0.7-1.1,0.7-2
    c0-0.9-0.2-1.5-0.7-2c-0.5-0.5-1.1-0.7-2.1-0.7h-3V109.4z"/>
</g>
</svg>
